PathFileType	4	(X/Y/Z)	Patient4_TMGait_0pt7_02_right_04.trc.trc
DataRate	CameraRate	NumFrames	NumMarkers	Units	OrigDataRate	OrigDataStartFrame	OrigNumFrames
83.832335329341	83.832335329341	4	33	mm	83.832335329341	1	       141
Frame#	Time	Sacral			L.Shoulder			Chest			R.Shoulder			Neck			R.ASIS			L.ASIS			R.Thigh.Superior			R.Thigh.Lateral			R.Thigh.Inferior			R.Patella			L.Thigh.Superior			L.Thigh.Lateral			L.Thigh.Inferior			L.Patella			L.Shank.Superior			L.Shank.Lateral			L.Shank.Inferior			R.Shank.Superior			R.Shank.Lateral			R.Shank.Inferior			R.Heel			R.Midfoot.Superior			R.Midfoot.Lateral			R.Toe			L.Heel			L.Midfoot.Lateral			L.Midfoot.Superior			L.Toe			L.Elbow			L.Wrist			R.Elbow			R.Wrist			
		X1	Y1	Z1	X2	Y2	Z2	X3	Y3	Z3	X4	Y4	Z4	X5	Y5	Z5	X6	Y6	Z6	X7	Y7	Z7	X8	Y8	Z8	X9	Y9	Z9	X10	Y10	Z10	X11	Y11	Z11	X12	Y12	Z12	X13	Y13	Z13	X14	Y14	Z14	X15	Y15	Z15	X16	Y16	Z16	X17	Y17	Z17	X18	Y18	Z18	X19	Y19	Z19	X20	Y20	Z20	X21	Y21	Z21	X22	Y22	Z22	X23	Y23	Z23	X24	Y24	Z24	X25	Y25	Z25	X26	Y26	Z26	X27	Y27	Z27	X28	Y28	Z28	X29	Y29	Z29	X30	Y30	Z30	X31	Y31	Z31	X32	Y32	Z32	X33	Y33	Z33	

1	3.590000000000	771.264838040869	1017.524429445502	445.275444313872	967.738775736228	1425.089263600533	236.576683282962	1076.740971936061	1355.321553736559	395.457210827043	1007.771783509508	1447.570961721227	568.211425828847	982.792087211799	1493.197055267090	387.248252629115	997.845360248564	940.904616970461	553.936952059902	979.321456384161	962.892278311593	282.247311494663	1075.205678469295	773.544556448803	533.438888160886	1031.671737589644	654.443670655435	611.730273326873	1125.604885679326	613.750888423928	537.602335544893	1140.319889109107	497.410313280035	561.401007247487	1023.505251326643	755.393184260356	298.406879449835	928.521277430689	641.651224228992	248.719095087535	1019.192411100584	562.902746784494	301.994161166482	1020.062035726309	494.281315989247	310.854676235890	994.661309632153	422.763899056635	305.887045018586	903.225585208026	305.415387517131	264.396736196821	966.228854697891	197.092167284143	332.494497783101	1056.866507883474	427.665253406606	563.224800318711	927.565270410763	401.267016297807	614.502679914880	906.113143883742	294.540528995019	563.868006609608	701.062529773070	249.034311447147	520.698629975098	863.436499826417	183.265055856030	576.680791064092	751.094308533059	188.065494317644	599.531551807629	918.338270291769	66.629027865761	607.646790893565	846.939265652934	38.247470445694	382.355177260955	921.594356095502	34.118807585477	301.643094994102	1002.958946352101	97.893794989858	327.019070865920	1132.675965339073	48.713576696716	303.738460220777	949.476046917344	1074.618192930154	118.629232452532	1069.164984825909	841.303965894538	110.989536314432	958.361486693737	1113.915846109539	706.101911886519	1157.674898654698	965.987989496880	632.785195520454	
2	3.601928571429	770.039404965542	1017.890776709005	444.310132013858	968.162201114565	1425.038716832004	235.974614571637	1076.041169694344	1355.375347325101	395.581769163503	1006.085626010018	1448.079765437262	567.718373032210	982.333333489860	1493.363795285857	386.470953765506	996.522508569417	941.456576276815	554.096092644875	978.535860035388	963.263032101096	281.831511715722	1076.262754303199	777.632720400824	532.976720987565	1035.676045184573	657.782721163385	611.571616800017	1130.355836722325	619.102171839355	537.480537965034	1148.148257228755	503.540227356281	561.337397521385	1020.035703325909	754.427837241092	298.829403210751	923.720337948573	641.960758320218	248.686624102348	1012.732684563079	562.028045269603	302.504365174790	1012.560137179999	493.674605081509	311.507372975876	987.092663474454	422.580474066592	306.227556002537	895.338068549935	305.578314660016	264.412588009173	957.796039813868	197.014264303834	332.613035457461	1067.108818839058	431.448067208970	563.355607878023	939.424350686406	400.433170744502	615.440022515870	921.361408671082	293.109915185708	564.738680181301	718.130057778110	240.731983399501	522.952445532333	882.840824321598	180.170595915685	577.355062636394	770.664590379030	181.258716966833	601.203048389741	941.596171960913	65.445863509739	607.561218601121	838.020081413866	38.244831685128	382.367277447226	912.756654018093	34.134368140783	301.682787309235	994.143553512056	97.826481752418	327.114443790676	1123.856117239698	48.595203991615	303.774189549787	959.197403153178	1076.072679133562	115.617404322998	1089.300905617075	849.113267052717	108.135455748237	948.981283098349	1115.886782150127	706.667821401373	1133.116708610345	949.632770386223	644.077171054372	
3	3.613857142857	768.834667884535	1018.233514374041	443.378401483831	968.605052904884	1424.986620753382	235.411094134601	1075.363345173321	1355.414123142208	395.735075547719	1004.427258216059	1448.543898403247	567.267648066894	981.883839733435	1493.511694030518	385.743067710786	995.228823063030	941.974358753839	554.255274620051	977.494139747875	963.344808800107	281.359828169845	1077.270601559894	781.602465663631	532.516003651573	1039.584999825623	661.037655384339	611.405398926006	1134.950411881960	624.313524885852	537.318981489051	1155.752917771310	509.556464893757	561.243633646583	1016.617867961977	753.476261883263	299.277923566701	918.992405342450	642.258236213704	248.647951236284	1006.353046673081	561.158993639905	302.997966808879	1005.149264651389	493.070604385726	312.141611399689	979.623043255056	422.391183522189	306.559385938432	887.552453373227	305.734492808400	264.420832492946	949.460788052576	196.931318465663	332.731311852771	1077.164334443325	435.123936171965	563.477069563595	951.150094737995	399.448600585372	616.389562685550	936.524449962459	291.527263402677	565.644660229464	735.145992526208	232.222574892803	525.294958963790	902.205425910538	176.897041172379	578.098762259237	790.204012012552	174.273187673822	602.948877950947	964.835499249771	64.096906621246	607.551205751363	829.204550504901	38.240325805210	382.377975156290	904.017621742426	34.146483550712	301.723070525987	985.424889900046	97.757986574294	327.211570352429	1115.134959222553	48.477535098603	303.810579583153	968.665527065384	1077.538880366676	112.686253355676	1109.127162161413	856.991124715899	105.412068468805	939.789315361907	1117.801758808974	707.252916054328	1108.485271357363	933.765811715578	655.374634935280	
4	3.625785714286	767.680206458683	1018.522013863701	442.510888055469	969.094706036729	1424.924840835402	234.939968503924	1074.736681111619	1355.412566259981	395.960461999314	1002.832087611097	1448.908057918295	566.915757127323	981.463658809538	1493.612787063272	385.130418236436	993.989474378976	942.410721076237	554.418216439903	976.210964600296	963.092902086261	280.858861339945	1078.158913974176	785.301344194849	532.061299535708	1043.262432609841	664.087524905259	611.233435471261	1139.191465040998	629.196598081949	537.088020096989	1162.877591351885	515.324654200222	561.098125711378	1013.300929177961	752.531059333086	299.776672479859	914.378690243210	642.530632553545	248.601502555819	1000.088607055095	560.292653802025	303.466291014821	997.871031960847	492.466222266863	312.744914394395	972.293828734919	422.188904577526	306.879593764460	879.912876646795	305.878022277668	264.412073837097	941.254225668904	196.837913968222	332.853087715442	1086.853348145923	438.581064184625	563.590852365019	962.685593434567	398.127754849574	617.375950502599	951.653489551685	289.645741180586	566.627672715826	752.326925840878	223.229572146339	527.798605759508	921.708980451182	173.310186550792	578.988214977266	809.946216968536	166.912771951560	604.835333850176	988.282834769960	62.545071377019	607.703034274076	820.519278591972	38.234883124388	382.386823040678	895.400585528864	34.154522970583	301.764286776040	976.827827129551	97.686314983973	327.312498088458	1106.535808758740	48.358234413851	303.847698667590	977.657539306060	1079.025647228710	109.918785221427	1128.394626806918	865.138186106911	102.978236339699	930.903333886223	1119.638778760839	707.892359941977	1083.637000203277	918.920583032766	666.656140535758	
